<?xml version="1.0" standalone="no"?><!DOCTYPE svg PUBLIC "-//W3C//DTD SVG 1.1//EN" "http://www.w3.org/Graphics/SVG/1.1/DTD/svg11.dtd"><svg t="1729673408264" class="icon" viewBox="0 0 1027 1024" version="1.1" xmlns="http://www.w3.org/2000/svg" p-id="2985" xmlns:xlink="http://www.w3.org/1999/xlink" width="200.5859375" height="200"><path d="M457.6 14.4a457.6 457.6 0 1 0 457.6 457.6A458.24 458.24 0 0 0 457.6 14.4z m0 832A374.4 374.4 0 1 1 833.6 472a375.04 375.04 0 0 1-376 374.4zM1015.04 938.56l-96-96a41.6 41.6 0 0 0-58.88 58.88l96 96a41.6 41.6 0 0 0 58.88 0 41.6 41.6 0 0 0 0-58.88z" fill="#685d5d" p-id="2986"></path></svg>